<svg width="200" height="200" viewBox="0 0 200 200" fill="none" xmlns="http://www.w3.org/2000/svg">
  <!-- Robot body -->
  <rect x="60" y="40" width="80" height="100" rx="12" fill="#D4C4B0" stroke="#3A8E9C" stroke-width="8"/>
  <!-- Left arm -->
  <rect x="30" y="70" width="25" height="35" rx="8" fill="#D4C4B0" stroke="#3A8E9C" stroke-width="6"/>
  <rect x="30" y="110" width="25" height="20" rx="6" fill="#D4C4B0" stroke="#3A8E9C" stroke-width="6"/>
  <!-- Right arm -->
  <rect x="145" y="70" width="25" height="35" rx="8" fill="#D4C4B0" stroke="#3A8E9C" stroke-width="6"/>
  <rect x="145" y="110" width="25" height="20" rx="6" fill="#D4C4B0" stroke="#3A8E9C" stroke-width="6"/>
  <!-- Left leg -->
  <rect x="70" y="145" width="22" height="35" rx="6" fill="#D4C4B0" stroke="#3A8E9C" stroke-width="6"/>
  <!-- Right leg -->
  <rect x="108" y="145" width="22" height="35" rx="6" fill="#D4C4B0" stroke="#3A8E9C" stroke-width="6"/>
  <!-- Left eye -->
  <circle cx="82" cy="75" r="8" fill="#3A8E9C"/>
  <!-- Right eye -->
  <circle cx="118" cy="75" r="8" fill="#3A8E9C"/>
  <!-- Left eyebrow -->
  <path d="M 70 62 Q 82 58 90 62" stroke="#3A8E9C" stroke-width="4" fill="none" stroke-linecap="round"/>
  <!-- Right eyebrow -->
  <path d="M 110 62 Q 118 58 126 62" stroke="#3A8E9C" stroke-width="4" fill="none" stroke-linecap="round"/>
  <!-- Nose/bridge -->
  <path d="M 95 82 L 100 88 L 105 82" stroke="#3A8E9C" stroke-width="3" fill="none" stroke-linecap="round" stroke-linejoin="round"/>
  <!-- Smile -->
  <path d="M 80 100 Q 100 110 120 100" stroke="#3A8E9C" stroke-width="4" fill="none" stroke-linecap="round"/>
  <!-- Chest badge -->
  <circle cx="100" cy="122" r="12.6" fill="#B8A4D4"/>
  <!-- Sound waves -->
  <path d="M 95 122 L 97 118 L 97 126 Z" fill="#5BADB8"/>
  <path d="M 101 118 Q 104 122 101 126" stroke="#5BADB8" stroke-width="2" fill="none" stroke-linecap="round"/>
  <path d="M 104 116 Q 108 122 104 128" stroke="#5BADB8" stroke-width="2" fill="none" stroke-linecap="round"/>
</svg>
